<mxfile host="app.diagrams.net" modified="2022-11-16T09:05:19.057Z" agent="5.0 (Windows NT 10.0; Win64; x64) AppleWebKit/537.36 (KHTML, like Gecko) Chrome/107.0.0.0 Safari/537.36" etag="qbxBUcA1x8brwOOaO-9c" version="20.3.0" type="github">
  <diagram id="r3CuWSpLD6NK1Gz0DVxi" name="第 1 页">
    <mxGraphModel dx="782" dy="436" grid="1" gridSize="10" guides="1" tooltips="1" connect="1" arrows="1" fold="1" page="1" pageScale="1" pageWidth="827" pageHeight="1169" math="0" shadow="0">
      <root>
        <mxCell id="0" />
        <mxCell id="1" parent="0" />
        <mxCell id="2YPaTqIDc-VJyDTXO4vi-4" value="" style="edgeStyle=orthogonalEdgeStyle;rounded=0;orthogonalLoop=1;jettySize=auto;html=1;fontSize=15;endArrow=blockThin;endFill=1;" edge="1" parent="1" source="2YPaTqIDc-VJyDTXO4vi-1" target="2YPaTqIDc-VJyDTXO4vi-3">
          <mxGeometry relative="1" as="geometry" />
        </mxCell>
        <mxCell id="2YPaTqIDc-VJyDTXO4vi-1" value="开发中如何将多个变化的维度分离？" style="text;html=1;strokeColor=none;fillColor=none;align=center;verticalAlign=middle;whiteSpace=wrap;rounded=0;fontSize=15;" vertex="1" parent="1">
          <mxGeometry x="130" y="60" width="310" height="100" as="geometry" />
        </mxCell>
        <mxCell id="2YPaTqIDc-VJyDTXO4vi-3" value="桥接模式&lt;br&gt;维度1-&amp;gt;维度2" style="ellipse;whiteSpace=wrap;html=1;fontSize=15;" vertex="1" parent="1">
          <mxGeometry x="180" y="180" width="210" height="70" as="geometry" />
        </mxCell>
        <mxCell id="2YPaTqIDc-VJyDTXO4vi-11" style="edgeStyle=orthogonalEdgeStyle;rounded=0;orthogonalLoop=1;jettySize=auto;html=1;fontSize=15;endArrow=block;endFill=0;startArrow=diamondThin;startFill=0;" edge="1" parent="1" source="2YPaTqIDc-VJyDTXO4vi-6" target="2YPaTqIDc-VJyDTXO4vi-12">
          <mxGeometry relative="1" as="geometry">
            <mxPoint x="420" y="315" as="targetPoint" />
          </mxGeometry>
        </mxCell>
        <mxCell id="2YPaTqIDc-VJyDTXO4vi-6" value="抽象化" style="html=1;fontSize=15;" vertex="1" parent="1">
          <mxGeometry x="100" y="290" width="110" height="50" as="geometry" />
        </mxCell>
        <mxCell id="2YPaTqIDc-VJyDTXO4vi-8" style="edgeStyle=orthogonalEdgeStyle;rounded=0;orthogonalLoop=1;jettySize=auto;html=1;entryX=0.25;entryY=1;entryDx=0;entryDy=0;fontSize=15;endArrow=block;endFill=0;" edge="1" parent="1" source="2YPaTqIDc-VJyDTXO4vi-7" target="2YPaTqIDc-VJyDTXO4vi-6">
          <mxGeometry relative="1" as="geometry" />
        </mxCell>
        <mxCell id="2YPaTqIDc-VJyDTXO4vi-7" value="抽象化&lt;br&gt;修正1" style="html=1;fontSize=15;" vertex="1" parent="1">
          <mxGeometry x="40" y="400" width="110" height="50" as="geometry" />
        </mxCell>
        <mxCell id="2YPaTqIDc-VJyDTXO4vi-10" style="edgeStyle=orthogonalEdgeStyle;rounded=0;orthogonalLoop=1;jettySize=auto;html=1;entryX=0.697;entryY=1.04;entryDx=0;entryDy=0;entryPerimeter=0;fontSize=15;endArrow=block;endFill=0;" edge="1" parent="1" source="2YPaTqIDc-VJyDTXO4vi-9" target="2YPaTqIDc-VJyDTXO4vi-6">
          <mxGeometry relative="1" as="geometry" />
        </mxCell>
        <mxCell id="2YPaTqIDc-VJyDTXO4vi-9" value="抽象化&lt;br&gt;修正2" style="html=1;fontSize=15;" vertex="1" parent="1">
          <mxGeometry x="170" y="400" width="110" height="50" as="geometry" />
        </mxCell>
        <mxCell id="2YPaTqIDc-VJyDTXO4vi-12" value="实现化" style="html=1;fontSize=15;" vertex="1" parent="1">
          <mxGeometry x="414" y="290" width="110" height="50" as="geometry" />
        </mxCell>
        <mxCell id="2YPaTqIDc-VJyDTXO4vi-15" style="edgeStyle=orthogonalEdgeStyle;rounded=0;orthogonalLoop=1;jettySize=auto;html=1;entryX=0.25;entryY=1;entryDx=0;entryDy=0;fontSize=15;startArrow=none;startFill=0;endArrow=block;endFill=0;" edge="1" parent="1" source="2YPaTqIDc-VJyDTXO4vi-13" target="2YPaTqIDc-VJyDTXO4vi-12">
          <mxGeometry relative="1" as="geometry" />
        </mxCell>
        <mxCell id="2YPaTqIDc-VJyDTXO4vi-13" value="具体&lt;br&gt;实现1" style="html=1;fontSize=15;" vertex="1" parent="1">
          <mxGeometry x="350" y="400" width="110" height="50" as="geometry" />
        </mxCell>
        <mxCell id="2YPaTqIDc-VJyDTXO4vi-16" style="edgeStyle=orthogonalEdgeStyle;rounded=0;orthogonalLoop=1;jettySize=auto;html=1;entryX=0.75;entryY=1;entryDx=0;entryDy=0;fontSize=15;startArrow=none;startFill=0;endArrow=block;endFill=0;" edge="1" parent="1" source="2YPaTqIDc-VJyDTXO4vi-14" target="2YPaTqIDc-VJyDTXO4vi-12">
          <mxGeometry relative="1" as="geometry" />
        </mxCell>
        <mxCell id="2YPaTqIDc-VJyDTXO4vi-14" value="具体&lt;br&gt;实现2" style="html=1;fontSize=15;" vertex="1" parent="1">
          <mxGeometry x="490" y="400" width="110" height="50" as="geometry" />
        </mxCell>
        <mxCell id="2YPaTqIDc-VJyDTXO4vi-17" value="桥接模式的定义：将抽象部分和实现部分解耦，使得两者能够独立变化" style="text;html=1;strokeColor=none;fillColor=none;align=center;verticalAlign=middle;whiteSpace=wrap;rounded=0;fontSize=15;" vertex="1" parent="1">
          <mxGeometry x="43" y="480" width="250" height="30" as="geometry" />
        </mxCell>
      </root>
    </mxGraphModel>
  </diagram>
</mxfile>
